<?xml version="1.0" encoding="UTF-8"?>
<svg width="289px" height="61px" viewBox="0 0 289 61" version="1.1" xmlns="http://www.w3.org/2000/svg" xmlns:xlink="http://www.w3.org/1999/xlink">
    <!-- Generator: Sketch 55.2 (78181) - https://sketchapp.com -->
    <title>Recurso 7 Copy</title>
    <desc>Created with Sketch.</desc>
    <g id="Page-1" stroke="none" stroke-width="1" fill="none" fill-rule="evenodd">
        <g id="Artboard-Copy" transform="translate(0.000000, -12.000000)" fill="#279655" fill-rule="nonzero">
            <g id="Recurso-7-Copy" transform="translate(0.000000, 12.000000)">
                <path d="M22.18,31.35 C22.18,38.51 18.18,43.52 13.18,43.52 C10.5799333,43.5897205 8.05978945,42.6176651 6.18,40.82 L6.18,21.87 C8.07455411,20.0899191 10.5804208,19.1054715 13.18,19.1198415 C18.18,19.1198415 22.18,24.18 22.18,31.35 M28.49,31.35 C28.49,19.94 20.74,13.67 14.14,13.67 C10.26,13.67 7.14,14.86 5.41,16.88 L5.19,14.41 L0,14.41 L0,60.66 L6.2,60.66 L6.2,47.16 C8.31014184,48.4234292 10.7423888,49.0453895 13.2,48.95 C22.07,48.95 28.53,41.63 28.53,31.35" id="Fill-1"></path>
                <path d="M53.22,48.2 L53,45.1 C50.89,47.64 48.63,49 44.12,49 C37.67,49 33.12,44.57 33.12,37.71 L33.12,14.41 L39.28,14.41 L39.28,37 C39.28,40.42 41.16,43.57 45.74,43.57 C47.5330954,43.6738463 49.2878963,43.022986 50.5795877,41.7749842 C51.8712791,40.5269824 52.582111,38.7956062 52.54,37 L52.54,14.41 L58.74,14.41 L58.74,48.2 L53.22,48.2 Z" id="Fill-3"></path>
                <path d="M84.09,31.12 C84.09,38.43 80.03,43.52 73.72,43.52 C72.287561,43.5588165 70.8670423,43.2500081 69.58,42.62 L69.58,20.62 C71.002304,19.5175092 72.786755,18.9893117 74.58,19.14 C79.39,19.14 84.13,23.91 84.13,31.14 M90.33,31.14 C90.33,20.62 82.95,13.69 74.62,13.69 C71.91,13.69 70.74,14.06 69.62,14.74 L69.62,0 L63.39,0 L63.39,45.66 C66.3764204,47.8645142 70.0088651,49.0178945 73.72,48.94 C83.41,48.94 90.33,41.85 90.33,31.12" id="Fill-5"></path>
                <path d="M143.504636,48.2134831 L143.504636,27.3052434 C143.504636,19.8333333 140.517817,14 132.011878,14 C127.206997,14 124.155247,15.7041199 120.45419,19.6367041 L119.67502,14.7865169 L115,14.7865169 L115,48.2134831 L121.103498,48.2134831 L121.103498,24.7490637 C124.479902,21.0786517 126.817412,19.1123596 130.843123,19.1123596 C135.712936,19.1123596 137.401137,22.9138577 137.401137,28.5505618 L137.401137,48.2134831 L143.504636,48.2134831 Z" id="news-path"></path>
                <path d="M222.646879,14.7865169 L216.738173,14.7865169 C214.790248,23.8314607 212.128084,33.2041199 209.46592,41.8558052 L209.336058,41.8558052 L201.544358,14.7865169 L195.181137,14.7865169 L187.584229,41.8558052 L187.454367,41.8558052 C184.727272,33.335206 182.19497,24.0280899 180.182114,14.7865169 L173.818893,14.7865169 C176.416126,25.8632959 179.792529,37.2677903 183.75331,48.2134831 L190.76584,48.2134831 L197.973162,22.6516854 L198.103024,22.6516854 L205.635001,48.2134831 L212.257946,48.2134831 C216.348588,37.071161 219.854853,25.928839 222.646879,14.7865169 Z" id="news-path"></path>
                <path d="M245,38.5131086 C245,33.2041199 241.688528,30.9101124 236.169407,29.0749064 C231.624248,27.4363296 229.611393,26.3220974 229.611393,23.5692884 C229.611393,21.340824 231.169733,18.8501873 235.260375,18.8501873 C237.468023,18.8501873 239.935395,19.2434457 242.207974,20.0299625 L242.987144,15.1797753 C240.714565,14.4588015 237.857608,14 235.390237,14 C227.728398,14 223.313102,17.9981273 223.313102,24.159176 C223.313102,29.5337079 226.689505,31.7621723 232.078764,33.6629213 C236.494061,35.170412 238.571848,36.4157303 238.571848,39.1029963 C238.571848,42.4456929 235.974614,44.0187266 232.273557,44.0187266 C229.611393,44.0187266 226.494713,43.428839 223.832548,42.511236 L222.923517,47.6891386 C225.845404,48.5411985 229.091946,49 232.013833,49 C239.935395,49 245,44.9363296 245,38.5131086 Z" id="news-path"></path>
                <path d="M264.85,13.83 C260.207161,13.8610718 255.770717,15.752787 252.534034,19.0815707 C249.297351,22.4103544 247.530825,26.8981165 247.63,31.54 C247.479329,37.7928455 250.729044,43.636286 256.12045,46.8070141 C261.511856,49.9777423 268.198144,49.9777423 273.58955,46.8070141 C278.980956,43.636286 282.230671,37.7928455 282.08,31.54 C282.17646,26.8971779 280.407676,22.4094654 277.169413,19.0809894 C273.931149,15.7525134 269.49372,13.8611167 264.85,13.83 Z M262.85,16.71 C263.101105,16.6400915 263.35953,16.5998174 263.62,16.59 L263.62,23.14 C262.302029,22.9633971 261.003181,22.6654655 259.74,22.25 C260.566274,20.2928637 261.609462,18.4345805 262.85,16.71 L262.85,16.71 Z M263.62,25.58 L263.62,30.35 L257.62,30.35 C257.794174,28.3006458 258.238005,26.2832336 258.94,24.35 C260.437835,24.9494694 262.007937,25.3495594 263.61,25.54 L263.62,25.58 Z M259.55,17.58 C258.798934,18.7871129 258.150011,20.0548537 257.61,21.37 C256.824878,20.997157 256.06344,20.5763621 255.33,20.11 C256.57884,19.0173824 258.015397,18.1601917 259.57,17.58 L259.55,17.58 Z M253.7,21.81 C254.707593,22.4636588 255.760228,23.0451142 256.85,23.55 C256.042084,25.7437376 255.521101,28.0326996 255.3,30.36 L250.3,30.36 C250.479332,27.2174054 251.672255,24.2175531 253.7,21.81 L253.7,21.81 Z M250.33,32.76 L255.33,32.76 C255.518813,35.0956141 256.040766,37.3922089 256.88,39.58 C255.786805,40.0882585 254.730847,40.6730449 253.72,41.33 C251.70592,38.8991415 250.530922,35.882728 250.37,32.73 L250.33,32.76 Z M255.33,43.01 C256.071737,42.5197306 256.850794,42.0884073 257.66,41.72 C258.170853,43.0683682 258.810477,44.3643601 259.57,45.59 C258.019647,44.9983392 256.594756,44.1196564 255.37,43 L255.33,43.01 Z M263.64,46.53 C263.377362,46.5095883 263.116628,46.4694755 262.86,46.41 C261.626867,44.6732022 260.603113,42.7968802 259.81,40.82 C261.069659,40.4128559 262.365664,40.1282036 263.68,39.97 L263.64,46.53 Z M263.64,37.53 C262.047029,37.7113729 260.486086,38.1083368 259,38.71 C258.301372,36.7752606 257.854375,34.7587321 257.67,32.71 L263.67,32.71 L263.64,37.53 Z M279.28,30.38 L274.28,30.38 C274.061129,28.052342 273.540081,25.7630949 272.73,23.57 C273.815651,23.0633221 274.864837,22.4819259 275.87,21.83 C277.906104,24.2252164 279.115923,27.2129418 279.32,30.35 L279.28,30.38 Z M274.28,20.13 C273.550232,20.5908023 272.788266,20.9985207 272,21.35 C271.444508,20.0342449 270.775306,18.7694514 270,17.57 C271.555539,18.1390648 272.992879,18.9899429 274.24,20.08 L274.28,20.13 Z M266,16.61 C266.259631,16.6215654 266.517516,16.6584062 266.77,16.72 C268.01838,18.4378335 269.058958,20.2974468 269.87,22.26 C268.611553,22.6801806 267.315574,22.9782223 266,23.15 L266,16.61 Z M266,25.61 C267.5964,25.4125592 269.159843,25.0057277 270.65,24.4 C271.351995,26.3332336 271.795826,28.3506458 271.97,30.4 L265.97,30.4 L266,25.61 Z M266,32.77 L272,32.77 C271.820689,34.8167078 271.383907,36.8326214 270.7,38.77 C269.211362,38.1616686 267.647113,37.7579915 266.05,37.57 L266,32.77 Z M266.77,46.41 C266.515642,46.4613281 266.258555,46.4980548 266,46.52 L266,39.94 C267.301243,40.0982681 268.58397,40.3829464 269.83,40.79 C269.053147,42.7647512 268.046198,44.6410334 266.83,46.38 L266.77,46.41 Z M270.05,45.55 C270.823988,44.3192873 271.477033,43.0165462 272,41.66 C272.80299,42.0381435 273.578254,42.4725588 274.32,42.96 C273.092691,44.0739073 271.663695,44.9428453 270.11,45.52 L270.05,45.55 Z M276,41.32 C274.996029,40.6631549 273.946729,40.078354 272.86,39.57 C273.699228,37.3856684 274.221197,35.0923725 274.41,32.76 L279.41,32.76 C279.223585,35.8998151 278.027487,38.8953201 276,41.3 L276,41.32 Z" id="Shape"></path>
                <path d="M278.26,12.45 C278.181427,10.7753666 279.030105,9.19319481 280.468698,8.33236996 C281.907292,7.47154511 283.702708,7.47154511 285.141302,8.33236996 C286.579895,9.19319481 287.428573,10.7753666 287.35,12.45 C287.428573,14.1246334 286.579895,15.7068052 285.141302,16.56763 C283.702708,17.4284549 281.907292,17.4284549 280.468698,16.56763 C279.030105,15.7068052 278.181427,14.1246334 278.26,12.45 L278.26,12.45 Z M282.82,18.11 C285.933804,18.0879498 288.44278,15.5507053 288.429992,12.4368493 C288.417106,9.32299336 285.887296,6.80652161 282.773416,6.81014158 C279.659535,6.81376937 277.135589,9.33612259 277.13,12.45 C277.119137,13.9596472 277.716105,15.4101837 278.786432,16.4748678 C279.856759,17.5395518 281.310431,18.128843 282.82,18.11 L282.82,18.11 Z M281.64,12.9 L282.76,12.9 L284.47,15.72 L285.56,15.72 L283.73,12.85 C284.19261,12.8453371 284.633083,12.6512312 284.948679,12.3129577 C285.264275,11.9746842 285.427398,11.5218215 285.4,11.06 C285.4,9.77 284.64,9.21 283.12,9.21 L280.66,9.21 L280.66,15.72 L281.66,15.72 L281.64,12.9 Z M281.64,12.06 L281.64,10 L283,10 C283.68,10 284.4,10.15 284.4,11 C284.4,12 283.67,12.06 282.84,12.06 L281.64,12.06 Z" id="Shape"></path>
                <polygon id="Fill-7" points="93.66 48.35 93.66 0.02 99.91 0.02 99.91 48.33"></polygon>
                <path d="M111.76,4.42 C111.725971,6.12213232 110.49476,7.56340156 108.818847,7.86294801 C107.142934,8.16249447 105.48869,7.23696057 104.867139,5.65200435 C104.245587,4.06704812 104.829693,2.26373003 106.262469,1.34418296 C107.695244,0.424635885 109.577978,0.644750718 110.76,1.87 C111.41724,2.55443685 111.776772,3.47124459 111.76,4.42 Z" id="Path"></path>
                <rect id="Rectangle" x="104.98" y="14.41" width="6.31" height="33.78"></rect>
                <path d="M173,26.47 C172.81,20.19 168.51,13.69 160.46,13.69 C153.32,13.69 146.04,20.17 146.04,31.36 C146.04,41.87 153.11,48.96 161.59,48.96 C164.607531,49.0850734 167.599999,48.3646645 170.23,46.88 L170.28,46.88 C170.824685,46.4939878 171.272975,45.9875221 171.59,45.4 L171.59,40.22 C169.07582,42.418849 165.829197,43.5961958 162.49,43.52 C155.73,43.52 152.57,37.62 152.41,32.76 L172.52,32.76 C172.794088,31.1869173 172.954504,29.596134 173,28 L173,28 C173.08,27.44 173,26.88 173,26.47 Z M166.8,27.7 L152.75,27.7 C153.52,22.87 157.11,18.98 160.75,18.98 C164.51,18.98 166.95,22.98 166.95,26.58 C166.948563,26.949339 166.911727,27.31769 166.84,27.68 L166.8,27.7 Z" id="Shape-2"></path>
            </g>
        </g>
    </g>
</svg>